<?xml version="1.0" standalone="no"?>
<!DOCTYPE svg PUBLIC "-//W3C//DTD SVG 20010904//EN"
 "http://www.w3.org/TR/2001/REC-SVG-20010904/DTD/svg10.dtd">
<svg version="1.0" xmlns="http://www.w3.org/2000/svg"
 width="578.000000pt" height="557.000000pt" viewBox="0 0 578.000000 557.000000"
 preserveAspectRatio="xMidYMid meet">

<g transform="translate(0.000000,557.000000) scale(0.100000,-0.100000)"
fill="#000000" stroke="none">
<path d="M1037 5350 c-120 -21 -291 -90 -377 -154 -65 -49 -171 -161 -214
-226 -52 -80 -88 -161 -118 -265 l-23 -80 0 -1905 0 -1905 28 -88 c110 -352
388 -586 743 -627 71 -8 612 -10 1914 -8 l1815 3 84 23 c330 88 568 322 653
642 l23 85 0 1875 c0 2138 8 1945 -90 2145 -102 208 -268 356 -483 435 -173
63 -76 60 -2081 59 -1004 -1 -1848 -5 -1874 -9z m3633 -298 c135 -42 225 -97
326 -197 76 -76 98 -105 137 -185 83 -168 78 -27 75 -1948 l-3 -1707 -30 -85
c-78 -225 -260 -398 -495 -472 l-75 -23 -1690 0 -1690 0 -80 27 c-235 80 -399
251 -476 498 l-24 75 0 1715 c0 1629 1 1718 18 1780 79 280 309 493 585 540
26 4 790 7 1697 6 l1650 -1 75 -23z"/>
<path d="M1500 4813 c-54 -7 -149 -38 -219 -74 -67 -33 -221 -175 -241 -220
-5 -13 -14 -31 -18 -39 -25 -43 -35 -67 -55 -128 l-22 -67 0 -1460 0 -1460 22
-65 c22 -67 67 -160 93 -194 21 -27 131 -137 158 -159 12 -9 29 -17 37 -17 8
0 15 -4 15 -8 0 -10 52 -33 141 -65 l64 -22 1460 0 1460 0 73 23 c39 13 75 28
78 33 3 5 12 9 21 9 44 0 273 198 273 236 0 8 3 14 8 14 7 0 35 56 65 135 35
89 37 179 37 1543 0 1376 -3 1484 -39 1548 -5 11 -20 43 -33 72 -13 28 -26 52
-30 52 -5 0 -8 7 -8 15 0 13 -129 149 -176 186 -28 22 -122 66 -197 92 l-62
22 -1435 1 c-789 1 -1451 -1 -1470 -3z m1390 -1963 l0 -1760 -622 0 c-555 0
-628 2 -673 17 -192 64 -314 187 -376 378 -18 58 -19 105 -19 1360 0 1256 1
1302 20 1361 53 170 168 299 321 360 98 40 137 42 752 43 l597 1 0 -1760z
m1325 1746 c84 -16 160 -45 210 -78 71 -47 164 -156 203 -238 54 -111 52 -64
52 -1434 0 -1353 1 -1315 -46 -1423 -8 -17 -14 -36 -14 -41 0 -6 -3 -12 -8
-14 -4 -2 -27 -30 -51 -63 -25 -33 -53 -66 -62 -73 -10 -7 -24 -19 -32 -27
-24 -24 -128 -76 -191 -96 -57 -17 -99 -19 -638 -19 l-578 0 0 1760 0 1760
543 0 c420 0 558 -3 612 -14z"/>
<path d="M1380 2854 c-73 -13 -70 -10 -70 -74 0 -51 3 -61 23 -72 17 -10 153
-13 632 -13 479 0 615 3 633 13 18 11 22 21 22 67 0 46 -4 56 -22 67 -18 10
-152 13 -608 14 -322 1 -596 0 -610 -2z"/>
<path d="M1332 2444 c-21 -14 -22 -23 -22 -134 0 -153 -3 -150 168 -150 117 0
124 1 147 25 23 23 25 31 25 130 0 145 0 145 -168 145 -99 0 -132 -3 -150 -16z"/>
<path d="M1732 2448 c-15 -15 -17 -241 -2 -269 9 -15 22 -19 65 -19 71 0 75 9
75 150 0 140 -5 150 -73 150 -29 0 -58 -5 -65 -12z"/>
<path d="M3330 2854 c-73 -13 -70 -10 -70 -74 0 -51 3 -61 23 -72 17 -10 153
-13 632 -13 479 0 615 3 633 13 18 11 22 21 22 67 0 46 -4 56 -22 67 -18 10
-152 13 -608 14 -322 1 -596 0 -610 -2z"/>
</g>
</svg>
