<?xml version="1.0" standalone="no"?>
<!DOCTYPE svg PUBLIC "-//W3C//DTD SVG 20010904//EN"
 "http://www.w3.org/TR/2001/REC-SVG-20010904/DTD/svg10.dtd">
<svg version="1.0" xmlns="http://www.w3.org/2000/svg"
 width="578.000000pt" height="557.000000pt" viewBox="0 0 578.000000 557.000000"
 preserveAspectRatio="xMidYMid meet">

<g transform="translate(0.000000,557.000000) scale(0.100000,-0.100000)"
fill="#000000" stroke="none">
<path d="M300 2785 l0 -2585 2615 0 2615 0 0 2585 0 2585 -2615 0 -2615 0 0
-2585z m2530 5 l0 -2350 -1120 0 -1120 0 0 2350 0 2350 1120 0 1120 0 0 -2350z
m2460 0 l0 -2350 -1120 0 -1120 0 0 2350 0 2350 1120 0 1120 0 0 -2350z"/>
<path d="M1607 2642 c-325 -325 -457 -463 -457 -479 0 -20 32 -51 79 -78 9 -5
151 130 473 451 252 253 464 467 469 477 8 14 2 24 -28 52 -21 19 -47 35 -58
35 -13 0 -178 -158 -478 -458z"/>
<path d="M1295 2824 c-113 -113 -205 -209 -205 -213 0 -4 11 -18 25 -31 l25
-24 205 208 c113 114 205 213 205 220 0 13 -31 46 -43 46 -4 0 -99 -93 -212
-206z"/>
<path d="M1906 2381 c-119 -126 -216 -233 -216 -238 0 -10 42 -53 52 -53 11 0
433 452 436 467 4 17 -25 53 -44 53 -7 0 -109 -103 -228 -229z"/>
<path d="M3789 4481 c-19 -15 -22 -26 -20 -77 4 -101 61 -172 107 -134 16 14
19 86 4 95 -5 3 -10 28 -10 54 0 27 -6 53 -12 58 -26 20 -48 21 -69 4z"/>
<path d="M4305 4447 c-39 -39 -43 -61 -19 -95 21 -30 74 -27 88 4 5 11 19 25
30 30 25 11 33 56 13 72 -8 7 -28 15 -45 18 -27 5 -37 1 -67 -29z"/>
<path d="M4865 4377 c-25 -38 -35 -113 -18 -137 16 -23 65 -27 81 -7 17 21 26
135 12 152 -19 23 -57 18 -75 -8z"/>
<path d="M4132 4204 c-12 -8 -43 -47 -68 -85 -24 -38 -59 -85 -76 -104 -22
-25 -37 -61 -54 -127 -40 -155 -28 -238 35 -238 40 0 54 21 46 69 -10 59 30
207 67 249 16 19 40 52 55 75 l26 41 19 -27 c15 -21 28 -27 58 -27 44 0 50 -9
50 -84 0 -59 20 -96 54 -96 38 0 46 19 46 105 0 108 -18 145 -82 165 -29 9
-51 23 -57 37 -20 44 -86 71 -119 47z"/>
<path d="M4979 4030 c-8 -5 -32 -34 -54 -66 -22 -31 -49 -64 -59 -73 -64 -53
-69 -61 -53 -84 10 -15 26 -23 53 -24 41 -3 71 16 106 67 10 14 31 44 48 68
32 45 38 83 18 99 -22 17 -44 21 -59 13z"/>
<path d="M3601 3922 c-86 -31 -109 -56 -85 -90 20 -29 64 -29 152 -1 92 30 97
33 100 61 7 56 -62 69 -167 30z"/>
<path d="M4309 3802 c-55 -35 -96 -83 -121 -142 -24 -55 -20 -151 10 -220 23
-55 78 -110 108 -110 13 0 26 -4 29 -10 4 -6 56 -10 125 -10 l118 0 35 48 c56
76 71 185 41 290 -20 70 -95 153 -154 171 -69 21 -141 14 -191 -17z m206 -117
c57 -68 67 -152 30 -241 l-14 -34 -73 1 c-128 1 -166 29 -183 136 -5 33 -1 51
20 92 36 68 76 93 139 88 42 -4 53 -10 81 -42z"/>
<path d="M4805 3245 c-14 -13 -23 -30 -21 -37 3 -7 7 -26 11 -41 9 -43 92
-127 124 -127 63 0 68 54 11 110 -25 24 -40 48 -40 63 0 47 -51 67 -85 32z"/>
<path d="M4131 3130 c-13 -11 -37 -20 -55 -20 -40 0 -104 -43 -112 -75 -15
-61 59 -101 92 -50 11 17 25 25 44 25 64 0 119 42 120 91 0 49 -45 65 -89 29z"/>
</g>
</svg>
